<svg width="978" height="343" viewBox="0 0 978 343" fill="none" xmlns="http://www.w3.org/2000/svg">
<path fill-rule="evenodd" clip-rule="evenodd" d="M192.623 17.0231C194.686 21.7204 195.412 26.8023 195.202 31.2782C194.99 35.7521 193.947 39.5859 191.879 42.0347C190.495 43.7498 187.324 42.0126 188.793 40.3428C190.092 38.8028 191.277 35.2841 191.472 31.1635C191.667 27.0418 190.975 22.2871 189.103 18.0265C187.234 13.766 184.212 10.0339 179.827 7.72596C175.44 5.41905 169.624 4.42664 161.627 5.88204C143.163 9.24176 120.173 27.7705 98.2544 54.1732C76.3353 80.5738 55.2774 114.714 39.4796 148.938C23.6828 183.162 13.1538 217.493 12.1653 244.157C11.6715 257.49 13.579 268.891 18.2434 277.356C22.9068 285.819 30.1498 291.354 40.8483 293.438C52.1561 295.639 64.4387 292.363 77.1573 285.197C89.8768 278.031 102.877 267.027 115.326 254.254C140.22 228.705 162.937 196.094 177.786 172.903C178.926 171.114 182.252 172.499 181.104 174.283C166.197 197.564 143.429 230.285 118.262 256.113C105.678 269.027 92.5035 280.222 79.297 287.662C63.8744 296.35 42.8763 302.538 23.2174 292.09C-15.1275 271.713 0.104089 201.218 25.2816 145.745C56.0749 77.8995 113.513 8.62579 154.629 0.799205C172.016 -2.23642 186.363 3.41913 192.623 17.0231Z" fill="#052053"/>
<path fill-rule="evenodd" clip-rule="evenodd" d="M263.795 136.956H263.811C263.874 136.956 263.935 136.959 263.996 136.962C264.021 136.965 264.045 136.968 264.07 136.97C264.119 136.974 264.169 136.982 264.216 136.989C264.238 136.993 264.261 136.998 264.282 137.002C264.334 137.014 264.386 137.026 264.436 137.042C264.454 137.046 264.47 137.049 264.487 137.056C264.554 137.074 264.617 137.098 264.68 137.124L264.685 137.125C264.691 137.129 264.697 137.131 264.703 137.134C264.759 137.158 264.814 137.185 264.868 137.216C264.885 137.224 264.901 137.234 264.916 137.243C264.956 137.266 264.996 137.291 265.034 137.317C265.053 137.332 265.073 137.346 265.093 137.36C265.127 137.386 265.158 137.411 265.191 137.44C265.209 137.455 265.227 137.47 265.243 137.487C265.288 137.529 265.331 137.573 265.37 137.619L265.375 137.622C273.056 146.538 288.331 150.781 303.656 151.693C318.982 152.606 334.305 150.064 340.988 146.483C341.288 146.314 341.658 146.213 342.053 146.213C343.082 146.213 343.919 146.887 343.919 147.718C343.919 148.252 343.574 148.72 343.054 148.988C334.96 153.327 319.365 155.647 303.381 154.695C290.987 153.958 278.33 151.179 269.227 145.275C270.219 149.093 270.349 153.446 269.821 158.06C268.893 166.177 265.868 175.14 261.396 183.462C256.923 191.784 251.01 199.462 244.158 204.975C237.308 210.487 226.667 216.522 213.702 213.162C199.535 209.492 190.02 195.593 196.497 174.257C202.294 155.166 222.338 138.414 242.182 139.423C245.294 139.603 245.735 143.223 242.326 143.433C235.346 143.757 228.69 147.498 223.022 153.326C217.088 159.425 212.362 167.714 209.656 176.074C206.951 184.435 206.286 192.876 208.18 199.184C210.074 205.492 214.111 209.515 221.475 210.171C228.27 210.777 235.142 207.978 241.522 202.846C247.902 197.713 253.643 190.317 257.97 182.265C262.297 174.214 265.22 165.505 266.103 157.783C266.986 150.064 265.758 143.376 262.304 139.335C262.302 139.334 262.3 139.331 262.3 139.331C262.26 139.285 262.223 139.236 262.191 139.185C262.175 139.164 262.159 139.143 262.146 139.12C262.117 139.074 262.092 139.025 262.069 138.977V138.975C262.052 138.937 262.038 138.897 262.025 138.858C262.02 138.845 262.015 138.832 262.011 138.819C261.998 138.776 261.986 138.732 261.978 138.686C261.958 138.59 261.953 138.493 261.958 138.397V138.383C261.96 138.35 261.965 138.315 261.971 138.281C261.975 138.252 261.981 138.225 261.986 138.195C261.992 138.172 261.997 138.148 262.004 138.125C262.017 138.08 262.033 138.035 262.05 137.993C262.054 137.98 262.058 137.969 262.064 137.956C262.089 137.9 262.117 137.846 262.149 137.795C262.158 137.779 262.169 137.766 262.179 137.75C262.204 137.712 262.232 137.676 262.261 137.639C262.276 137.621 262.289 137.603 262.304 137.587C262.332 137.557 262.358 137.528 262.389 137.501C262.408 137.479 262.429 137.459 262.449 137.44C262.476 137.419 262.499 137.399 262.526 137.379C262.584 137.334 262.646 137.29 262.713 137.251C262.722 137.245 262.731 137.239 262.741 137.234C262.785 137.208 262.832 137.184 262.88 137.161L262.911 137.147C263.012 137.101 263.117 137.062 263.232 137.033C263.265 137.023 263.301 137.015 263.336 137.009C263.376 137 263.417 136.991 263.459 136.984C263.492 136.979 263.522 136.974 263.555 136.971C263.63 136.962 263.704 136.956 263.782 136.955C263.787 136.955 263.791 136.955 263.795 136.956Z" fill="#052053"/>
<path fill-rule="evenodd" clip-rule="evenodd" d="M418.189 144.008C409.455 157.121 402.276 171.159 399.014 182.896C397.197 189.432 396.614 195.252 397.534 199.714C398.457 204.174 400.715 207.168 404.729 208.737C408.914 210.37 413.835 210.174 419.329 208.538C424.823 206.903 430.765 203.821 436.565 199.944C448.164 192.19 459.207 181.28 465.796 172.8C467.108 171.069 470.318 172.69 468.958 174.397C462.143 183.171 450.971 194.224 438.949 202.26C432.937 206.279 426.719 209.546 420.622 211.362C397.281 218.091 379.362 204.205 385.402 179.368C387.014 172.737 390.213 165.65 393.953 159.118C387.134 166.065 379.149 174.089 371.119 181.896C361.672 191.083 354.046 198.252 347.496 202.832C344.223 205.123 341.213 206.778 338.26 207.675C318.394 213.489 311.459 189.528 323.518 166.558C335.696 143.36 368.226 128.872 393.39 149.154C395.17 150.577 392.495 152.72 390.74 151.274C381.192 143.529 372.201 142.617 363.598 145.399C350.534 149.626 338.919 163.618 332.65 177.197C329.516 183.984 327.689 190.653 327.492 195.778C327.393 198.34 327.712 200.514 328.38 202.074C329.048 203.634 329.97 204.517 331.14 204.938C332.875 205.56 334.648 205.555 336.943 204.859C339.241 204.162 341.964 202.716 345.05 200.559C351.221 196.244 358.82 189.141 368.245 179.977C384.977 163.708 401.658 146.361 407.511 140.233C407.615 140.122 407.72 140.004 407.822 139.898C409.703 137.902 412.062 137.004 414.159 136.945C414.285 136.941 414.409 136.941 414.532 136.944C418.349 137.019 421.123 139.913 418.189 144.008Z" fill="#052053"/>
<path fill-rule="evenodd" clip-rule="evenodd" d="M451.695 234.104C441.876 244.241 436.636 253.714 435.244 261.183C433.852 268.65 436.57 273.743 441.942 275.794C461.612 282.569 493.678 252.014 498.096 225.727C499.551 217.06 496.74 210.456 492.28 204.643C474.341 214.373 460.962 224.534 451.695 234.104ZM525.181 145.225C526.796 146.81 523.771 148.723 522.243 147.083C515.696 140.359 504.689 139.496 495.051 143.159C485.412 146.82 477.444 154.971 477.581 166.362C477.697 176.178 486.631 183.172 495.619 191.752C497.299 193.356 498.948 195.047 500.545 196.794C519.2 187.723 541.957 179.237 569.28 172.168C571.662 171.539 572.812 174.43 570.421 175.035C543.466 182.008 521.046 190.364 502.702 199.262C508.575 206.373 512.823 214.908 511.303 226.4C509.044 243.507 496.698 259.283 482.221 269.544C474.983 274.675 467.202 278.436 459.737 280.252C452.27 282.069 444.998 281.927 439.219 278.991C432.661 275.662 430.026 268.922 431.553 260.735C433.079 252.549 438.638 242.695 448.751 232.252C458.301 222.391 471.979 212.019 490.217 202.129C480.754 191.271 466.546 182.678 466.566 167.142C467.596 151.42 487.362 137.696 505.631 137.891C512.782 137.967 519.703 140.171 525.181 145.225Z" fill="#052053"/>
<path fill-rule="evenodd" clip-rule="evenodd" d="M684.664 12.6009C676.763 18.04 668.005 26.3467 659.051 36.608C652.464 44.1558 645.766 52.7645 639.174 62.0767C642.872 62.6081 646.584 63.1597 650.293 63.7253C661.91 65.4958 673.496 67.3779 684.566 69.0366C695.504 53.8646 704.044 39.6185 708.428 28.4282C711.093 21.6242 712.183 15.9415 711.517 12.0513C711.183 10.1068 710.44 8.63827 709.348 7.59252C708.26 6.54676 706.809 5.85529 704.676 5.5322C704.031 5.43256 703.356 5.38425 702.655 5.38526C697.753 5.39532 691.577 7.8411 684.664 12.6009ZM607.235 114.54C597.607 132.989 589.434 151.734 583.765 168.967C611.004 153.281 649.607 114.824 677.161 78.9809C678.358 77.4208 679.529 75.8688 680.685 74.3208C668.018 72.4517 656.532 70.4377 648.562 69.3557C644.733 68.8152 640.313 68.1117 635.5 67.3507C625.472 82.0014 615.789 98.1528 607.235 114.54ZM715.215 11.6397C716.018 16.329 714.741 22.3076 711.989 29.335C707.552 40.6562 699.171 54.6859 688.469 69.6164C700.702 71.4049 712.211 72.8634 722.301 73.5156C732.391 74.1658 741.058 73.9957 747.494 72.6389C753.929 71.2821 757.986 68.9068 759.777 64.9603C760.624 63.062 764.102 64.0877 763.283 65.993C756.373 82.5178 717.416 79.5375 684.616 74.8874C683.218 76.7716 681.797 78.6649 680.334 80.5662C651.426 118.172 611.015 158.423 582.406 173.372C579.849 181.669 577.847 189.612 576.677 196.889C574.791 208.608 574.888 218.725 577.351 226.252C579.812 233.775 584.413 238.603 591.839 240.518C598.755 242.225 606.712 240.777 615.237 236.983C623.768 233.185 632.741 227.071 641.405 219.841C658.739 205.379 674.875 186.467 684.69 172.803C685.917 171.006 689.244 172.56 687.921 174.311C677.964 188.169 661.748 207.201 644.091 221.932C635.263 229.297 626.083 235.592 617.043 239.616C608.098 243.512 595.32 247.329 583.15 242.325C548.219 227.964 571.786 152.83 594.297 110.396C601.715 96.4115 611.174 80.5138 621.845 65.2552C588.388 60.3766 545.785 56.7874 538.256 79.4328C537.997 80.2501 536.957 80.7353 535.949 80.5108C534.94 80.2854 534.358 79.4369 534.659 78.6296C537.131 71.4472 542.55 66.2909 549.937 62.9342C557.324 59.5765 566.619 57.9399 577.149 57.4155C579.781 57.2837 582.492 57.2223 585.272 57.2223C597.6 57.2233 611.279 58.4442 625.432 60.2187C645.287 32.8095 668.841 8.43799 691.149 2.42211C694.075 1.63301 696.953 1.23843 699.645 1.23441C707.724 1.22233 714.143 4.73001 715.215 11.6397Z" fill="#052053"/>
<path fill-rule="evenodd" clip-rule="evenodd" d="M783.433 144.008C774.699 157.121 767.521 171.159 764.259 182.896C762.442 189.432 761.857 195.252 762.779 199.714C763.702 204.174 765.957 207.168 769.975 208.737C774.158 210.37 779.08 210.174 784.573 208.538C790.068 206.903 796.009 203.821 801.809 199.944C813.408 192.19 824.452 181.28 831.04 172.8C832.35 171.069 835.563 172.69 834.203 174.397C827.387 183.171 816.216 194.224 804.194 202.26C798.182 206.279 791.963 209.546 785.867 211.362C762.525 218.091 744.607 204.205 750.646 179.368C752.26 172.737 755.458 165.65 759.195 159.118C752.378 166.065 744.393 174.089 736.363 181.896C726.916 191.083 719.29 198.252 712.742 202.832C709.466 205.123 706.457 206.778 703.503 207.675C683.638 213.489 676.704 189.528 688.763 166.558C700.941 143.36 733.472 128.872 758.634 149.154C760.415 150.577 757.741 152.72 755.985 151.274C746.436 143.529 737.445 142.617 728.843 145.399C715.778 149.626 704.163 163.618 697.896 177.197C694.76 183.984 692.934 190.653 692.737 195.778C692.637 198.34 692.957 200.514 693.624 202.074C694.292 203.634 695.214 204.517 696.385 204.938C698.119 205.56 699.892 205.555 702.188 204.859C704.484 204.162 707.209 202.716 710.295 200.559C716.464 196.244 724.064 189.141 733.489 179.977C750.22 163.708 766.902 146.361 772.755 140.233C772.858 140.122 772.964 140.004 773.066 139.898C774.947 137.902 777.306 137.004 779.404 136.945C779.529 136.941 779.654 136.941 779.776 136.944C783.592 137.019 786.366 139.913 783.433 144.008Z" fill="#052053"/>
<path fill-rule="evenodd" clip-rule="evenodd" d="M947.066 12.6009C939.163 18.04 930.406 26.3467 921.453 36.608C903.545 57.1277 884.81 85.4678 869.637 114.54C860.008 132.989 851.834 151.734 846.165 168.967C873.404 153.281 912.008 114.824 939.56 78.9809C954.027 60.1623 965.497 42.0371 970.828 28.4282C973.493 21.6242 974.584 15.9415 973.917 12.0513C973.583 10.1068 972.84 8.63827 971.75 7.59252C970.66 6.54676 969.209 5.85529 967.078 5.5322C966.431 5.43256 965.756 5.38526 965.056 5.38526C960.153 5.39532 953.979 7.8411 947.066 12.6009ZM977.615 11.6397C978.418 16.329 977.141 22.3076 974.389 29.335C968.882 43.3899 957.3 61.6177 942.735 80.5662C913.826 118.172 873.415 158.423 844.806 173.372C842.251 181.669 840.247 189.612 839.077 196.889C837.191 208.608 837.289 218.725 839.751 226.252C842.212 233.775 846.813 238.603 854.24 240.518C861.155 242.225 869.112 240.777 877.637 236.983C886.168 233.185 895.141 227.071 903.807 219.841C921.139 205.379 937.274 186.467 947.091 172.803C948.318 171.006 951.645 172.56 950.321 174.311C940.364 188.169 924.148 207.201 906.493 221.932C897.665 229.297 888.484 235.592 879.443 239.616C870.498 243.512 857.722 247.329 845.552 242.325C810.621 227.964 834.186 152.83 856.697 110.396C878.415 69.4533 917.605 12.1188 953.549 2.42211C956.475 1.63301 959.353 1.23843 962.047 1.23441C970.126 1.22233 976.543 4.73001 977.615 11.6397Z" fill="#052053"/>
<path d="M490.642 342.999C492.262 342.974 493.718 342.658 495.011 342.05C496.303 341.441 497.324 340.603 498.073 339.535C498.823 338.468 499.197 337.252 499.197 335.886C499.197 334.595 498.998 333.509 498.599 332.628C498.201 331.746 497.638 331.019 496.913 330.449C496.188 329.878 495.324 329.4 494.322 329.015C493.319 328.63 492.225 328.289 491.041 327.991C489.954 327.693 488.963 327.352 488.069 326.967C487.174 326.582 486.462 326.086 485.93 325.478C485.398 324.869 485.132 324.093 485.132 323.15C485.132 322.305 485.367 321.579 485.839 320.971C486.31 320.363 486.969 319.891 487.815 319.556C488.66 319.221 489.639 319.053 490.751 319.053C491.5 319.053 492.249 319.165 492.998 319.388C493.748 319.612 494.437 319.91 495.065 320.282C495.693 320.654 496.213 321.076 496.623 321.548C496.841 321.746 497.083 321.846 497.348 321.846C497.735 321.846 498.079 321.691 498.381 321.381C498.684 321.07 498.835 320.729 498.835 320.357C498.835 319.91 498.593 319.451 498.11 318.979C497.312 318.11 496.255 317.427 494.938 316.93C493.621 316.434 492.225 316.186 490.751 316.186C489.084 316.186 487.609 316.477 486.329 317.061C485.048 317.644 484.045 318.469 483.32 319.537C482.595 320.605 482.232 321.846 482.232 323.261C482.232 324.379 482.42 325.353 482.794 326.185C483.169 327.017 483.694 327.724 484.371 328.308C485.048 328.891 485.851 329.381 486.781 329.778C487.712 330.176 488.733 330.511 489.845 330.784C491.102 331.082 492.207 331.448 493.161 331.883C494.116 332.317 494.865 332.857 495.409 333.502C495.952 334.148 496.236 334.967 496.261 335.96C496.261 336.78 496.007 337.499 495.5 338.12C494.992 338.741 494.309 339.225 493.452 339.573C492.594 339.92 491.633 340.094 490.57 340.094C489.192 340.094 487.954 339.846 486.855 339.349C485.754 338.853 484.734 338.132 483.791 337.189C483.526 336.917 483.223 336.78 482.885 336.78C482.474 336.78 482.13 336.935 481.852 337.246C481.574 337.556 481.435 337.909 481.435 338.307C481.435 338.555 481.49 338.785 481.599 338.996C481.707 339.206 481.845 339.399 482.015 339.573C483.272 340.764 484.577 341.633 485.93 342.18C487.283 342.726 488.854 342.999 490.642 342.999ZM537.539 342.701C537.926 342.701 538.294 342.564 538.644 342.291C538.995 342.019 539.17 341.633 539.17 341.137C539.17 340.79 539.061 340.454 538.844 340.131L529.379 327.682L538.336 318.979C538.585 318.723 538.727 318.45 538.763 318.158L538.771 318.01C538.771 317.663 538.645 317.328 538.391 317.005C538.138 316.682 537.817 316.521 537.43 316.521C537.02 316.521 536.633 316.707 536.27 317.079L522.64 330.511L522.641 318.085C522.641 317.694 522.539 317.364 522.335 317.097L522.242 316.987C521.976 316.701 521.614 316.558 521.154 316.558C520.719 316.558 520.357 316.701 520.067 316.987C519.777 317.272 519.632 317.638 519.632 318.085V341.1C519.632 341.521 519.765 341.882 520.031 342.18C520.296 342.478 520.659 342.626 521.118 342.626C521.578 342.626 521.946 342.478 522.223 342.18C522.501 341.882 522.641 341.521 522.641 341.1L522.64 334.229L527.099 329.897L536.452 342.142C536.709 342.473 537.025 342.658 537.397 342.694L537.539 342.701ZM560.946 342.626C561.357 342.626 561.713 342.478 562.016 342.18C562.318 341.882 562.469 341.521 562.469 341.1V318.085C562.469 317.638 562.324 317.272 562.034 316.987C561.744 316.701 561.393 316.558 560.982 316.558C560.547 316.558 560.185 316.701 559.895 316.987C559.605 317.272 559.46 317.638 559.46 318.085V341.1C559.46 341.521 559.593 341.882 559.859 342.18C560.124 342.478 560.487 342.626 560.946 342.626ZM603.058 342.626C603.469 342.626 603.819 342.484 604.109 342.199C604.399 341.913 604.544 341.534 604.544 341.062V317.936C604.544 317.538 604.424 317.21 604.182 316.95C603.94 316.689 603.614 316.558 603.203 316.558C602.816 316.558 602.497 316.689 602.243 316.95C601.989 317.21 601.862 317.538 601.862 317.936V337.22L587.036 317.079C586.939 316.94 586.808 316.829 586.641 316.746L586.51 316.689C586.281 316.601 586.057 316.558 585.84 316.558C585.453 316.558 585.121 316.695 584.843 316.968C584.565 317.24 584.426 317.601 584.426 318.048V341.249C584.426 341.646 584.546 341.975 584.788 342.236C585.03 342.497 585.344 342.626 585.731 342.626C586.141 342.626 586.475 342.497 586.728 342.236C586.982 341.975 587.108 341.646 587.108 341.249V322.049L601.898 342.142C601.995 342.262 602.122 342.361 602.281 342.44L602.406 342.497C602.623 342.583 602.841 342.626 603.058 342.626ZM659.261 339.424C659.721 339.424 660.095 339.275 660.385 338.977C660.675 338.679 660.82 338.294 660.82 337.822L660.819 331.64H666.728C667.08 331.64 667.38 331.545 667.625 331.354L667.743 331.25C668.009 330.989 668.142 330.66 668.142 330.263C668.142 329.865 668.009 329.53 667.743 329.257C667.478 328.984 667.139 328.847 666.728 328.847L660.819 328.848L660.82 322.479C660.82 322.067 660.713 321.72 660.5 321.441L660.403 321.325C660.125 321.027 659.757 320.878 659.297 320.878C658.838 320.878 658.458 321.027 658.155 321.325C657.853 321.623 657.702 322.007 657.702 322.479L657.701 328.848L651.866 328.847C651.514 328.847 651.216 328.943 650.97 329.135L650.851 329.239C650.586 329.5 650.452 329.828 650.452 330.225C650.452 330.623 650.586 330.958 650.851 331.231C651.117 331.504 651.456 331.64 651.866 331.64H657.701L657.702 337.86C657.702 338.251 657.818 338.584 658.049 338.862L658.155 338.977C658.458 339.275 658.826 339.424 659.261 339.424ZM724.671 342.626C725.614 342.626 726.55 342.503 727.48 342.254C728.411 342.005 729.257 341.59 730.019 341.007C730.78 340.423 731.389 339.653 731.849 338.698C732.308 337.742 732.537 336.556 732.537 335.141C732.537 333.826 732.301 332.72 731.83 331.827C731.359 330.933 730.744 330.213 729.982 329.667C729.221 329.12 728.393 328.724 727.499 328.475L727.777 328.56L727.904 328.504C727.988 328.466 728.069 328.425 728.15 328.383L728.386 328.252C729.317 327.705 730.025 326.973 730.508 326.054C730.991 325.135 731.233 324.13 731.233 323.038C731.233 320.978 730.658 319.382 729.511 318.253C728.363 317.123 726.726 316.558 724.599 316.558H715.138C714.727 316.558 714.382 316.701 714.104 316.987C713.827 317.272 713.688 317.626 713.688 318.048V341.1C713.688 341.521 713.827 341.882 714.104 342.18C714.382 342.478 714.727 342.626 715.138 342.626H724.671ZM716.804 319.5H724.164C725.396 319.5 726.363 319.841 727.064 320.525C727.764 321.207 728.115 322.169 728.115 323.41C728.115 324.8 727.734 325.85 726.973 326.558C726.211 327.265 725.299 327.618 724.236 327.618H716.804V319.5ZM716.804 330.598H724.454C725.276 330.598 726.066 330.722 726.828 330.97C727.589 331.219 728.212 331.672 728.695 332.33C729.178 332.987 729.42 333.924 729.42 335.141C729.42 336.705 728.967 337.86 728.061 338.604C727.155 339.349 725.988 339.722 724.563 339.722H716.804V330.598ZM767.291 342.626C767.701 342.626 768.052 342.49 768.342 342.217C768.632 341.944 768.777 341.596 768.777 341.174C768.777 340.802 768.632 340.466 768.342 340.169C768.052 339.871 767.701 339.722 767.291 339.722H755.944V330.672H765.66C766.011 330.672 766.32 330.577 766.582 330.385L766.711 330.282C767.001 330.021 767.146 329.679 767.146 329.257C767.146 328.835 767.001 328.487 766.711 328.214C766.421 327.942 766.07 327.805 765.66 327.805H755.944V319.425H767.291C767.642 319.425 767.951 319.33 768.214 319.139L768.342 319.035C768.632 318.774 768.777 318.432 768.777 318.01C768.777 317.589 768.632 317.24 768.342 316.968C768.052 316.695 767.701 316.558 767.291 316.558H754.386C753.975 316.558 753.631 316.701 753.353 316.987C753.075 317.272 752.936 317.626 752.936 318.048V341.1C752.936 341.521 753.075 341.882 753.353 342.18C753.631 342.478 753.975 342.626 754.386 342.626H767.291ZM807.119 342.701C807.481 342.701 807.808 342.571 808.098 342.31C808.388 342.05 808.533 341.695 808.533 341.249C808.533 341.05 808.496 340.851 808.424 340.653L799.071 317.414C798.974 317.117 798.799 316.881 798.545 316.707C798.292 316.533 798.009 316.446 797.694 316.446C797.38 316.421 797.096 316.49 796.843 316.652C796.589 316.813 796.401 317.067 796.28 317.414L786.892 340.876C786.819 341.074 786.795 341.261 786.819 341.435C786.819 341.782 786.928 342.08 787.145 342.329C787.363 342.577 787.701 342.701 788.16 342.701C788.426 342.701 788.68 342.614 788.922 342.44C789.164 342.266 789.332 342.031 789.429 341.733L791.856 335.662H803.333L805.778 341.695C805.879 341.964 806.021 342.182 806.206 342.348L806.321 342.44C806.563 342.614 806.829 342.701 807.119 342.701ZM802.157 332.758H793.017L797.558 321.403L802.157 332.758ZM837.45 342.887C839.287 342.887 840.93 342.446 842.38 341.566C843.83 340.684 844.984 339.486 845.841 337.971C846.699 336.457 847.128 334.743 847.128 332.832V318.048C847.128 317.626 846.995 317.266 846.729 316.968C846.464 316.67 846.125 316.521 845.714 316.521C845.279 316.521 844.941 316.67 844.699 316.968C844.458 317.266 844.337 317.626 844.337 318.048V332.832C844.337 334.198 844.017 335.414 843.377 336.482C842.736 337.55 841.897 338.387 840.857 338.996C839.818 339.604 838.682 339.908 837.45 339.908C836.242 339.908 835.124 339.604 834.097 338.996C833.069 338.387 832.254 337.55 831.65 336.482C831.045 335.414 830.744 334.198 830.744 332.832V318.048C830.744 317.626 830.593 317.266 830.291 316.968C829.988 316.67 829.644 316.521 829.257 316.521C828.798 316.521 828.43 316.67 828.152 316.968C827.874 317.266 827.735 317.626 827.735 318.048V332.832C827.735 334.743 828.158 336.457 829.004 337.971C829.849 339.486 831.003 340.684 832.465 341.566C833.928 342.446 835.589 342.887 837.45 342.887ZM876.915 342.626C877.375 342.626 877.749 342.478 878.039 342.18C878.329 341.882 878.474 341.521 878.474 341.1L878.473 319.389L885.361 319.388C885.713 319.388 886.022 319.297 886.284 319.115L886.413 319.016C886.703 318.767 886.848 318.42 886.848 317.973C886.848 317.551 886.703 317.21 886.413 316.95C886.123 316.689 885.772 316.558 885.361 316.558H868.505C868.095 316.558 867.75 316.689 867.472 316.95C867.195 317.21 867.056 317.551 867.056 317.973C867.056 318.395 867.195 318.737 867.472 318.998C867.75 319.258 868.095 319.388 868.505 319.388L875.392 319.389L875.393 341.1C875.393 341.469 875.504 341.791 875.726 342.065L875.828 342.18C876.118 342.478 876.48 342.626 876.915 342.626ZM914.424 342.626C914.81 342.626 915.143 342.478 915.421 342.18C915.698 341.882 915.837 341.521 915.837 341.1V330.22L923.776 318.867C923.848 318.755 923.904 318.64 923.942 318.522L923.976 318.402C924.012 318.24 924.03 318.085 924.03 317.936C924.03 317.538 923.89 317.185 923.613 316.875C923.335 316.564 922.99 316.409 922.58 316.409C922.097 316.409 921.698 316.658 921.383 317.154L914.471 327.146L907.355 317.117C907.076 316.697 906.73 316.464 906.316 316.418L906.159 316.409C905.821 316.409 905.482 316.552 905.144 316.838C904.806 317.123 904.636 317.477 904.636 317.899C904.636 318.073 904.667 318.253 904.726 318.439C904.787 318.625 904.89 318.818 905.035 319.016L912.936 329.984L912.937 341.1C912.937 341.469 913.044 341.791 913.257 342.065L913.355 342.18C913.632 342.478 913.989 342.626 914.424 342.626Z" fill="#98B4DE"/>
</svg>
